<svg version="1" xmlns="http://www.w3.org/2000/svg" width="933.333" height="933.333" viewBox="0 0 700.000000 700.000000"><path d="M645.9 68.8c-10.8 3.3-21.6 14.3-30.2 30.5-4.3 8.1-7 18.5-9.7 38.2-2 14.1-2.8 19.7-3.6 24.9-3.1 19.3-42.7 55.1-78.9 71.2-3.8 1.8-7.1 3.1-7.3 2.9-.1-.1.2-1.3.7-2.7 1.3-3.5.7-26.5-.9-30.8-2.6-7.4-4.9-11.7-8.7-16-2.1-2.5-4.5-6.5-5.2-9-4.7-16.5-16.3-25-32.5-23.7-21.6 1.6-29.7 15.8-29.1 50.7.2 12.8.6 16.7 2.5 22.5 2.4 7.6 6.8 16.4 13 26.5 2.3 3.6 4.4 7.6 4.7 8.8.4 1.9-1.7 5.8-10 18-5.7 8.7-19.2 29-30 45.2-37.1 56.2-59.7 83.2-82.9 99.1-9.2 6.3-25.1 14.3-34.6 17.4-3.1 1-6.9 3.2-8.9 5.2l-3.6 3.4 1.8 3.9c3.6 8 8.9 11.3 18.3 11.3h3.4l-4.8 4.2c-5.4 4.8-5.5 6.3-.4 13.2 3.8 5.2 9.5 7.2 18.5 6.6 11.4-.7 20.8-4.4 30.1-11.9 11.2-8.9 12.6-10.5 38.8-41.8 2.3-2.7 6.4-7.3 9.1-10.1 2.8-2.9 12.1-15.8 20.8-28.6 16.2-23.9 18.2-26.9 52.1-76.7l19.6-28.9 6.2-2.3c40.5-14.5 62.3-26.8 98-55.3 2.1-1.7 4-2.8 4.2-2.6.4.4 1.1 5.5 2.1 16.4.4 3.3 1 9.6 1.5 14s1.2 11.1 1.6 15c.3 3.8.8 7.9 1 9 1.6 7.4 2.4 69.5 1.1 81-.4 3.8-1 9-1.3 11.5-1.4 12.7-9.7 43.8-15 56.5-5.4 12.8-17.2 26.8-27.4 32.7-8.2 4.7-17.4 7-30.5 7.4-9.6.3-13.2 0-18-1.5-11.2-3.4-21.7-9.8-30-18.6-5.1-5.2-6.4-10.5-6.2-23.5.2-7.9.6-10.4 2.8-15.1 3.3-7.1 13.5-17.9 26.4-28.2 12.9-10.3 15-12.7 17.3-19.9l2-6-9.3.6c-15.3 1.1-27.5 5.9-38.5 15.3l-5.5 4.7 4.5-4.8c2.5-2.7 9.7-9 16-14.1 6.3-5.1 12.3-10.1 13.2-11.2 1.9-2 4.1-7.1 5.2-11.7l.7-2.9-9.3.6c-16.2 1-28.8 6.4-40.4 17.5-8.2 7.8-11.8 12.7-15.8 21.3-5.8 12.3-7.1 23.1-5.1 41.8.3 3.6 1.1 7.3 1.6 8.3.5 1 .8 1.8.5 1.8-.8 0 4 13.2 6.9 19 1.5 3 4.1 7.4 5.7 9.8 1.6 2.3 4.8 8 7 12.5 6.1 12.4 10.4 18.3 20.5 28.4 11.4 11.2 27.2 19.9 39.9 22 13.6 2.2 38.6 0 49.4-4.4 17.6-7.2 32.1-19.4 42.5-35.3 10.7-16.6 20.6-45.6 24-70 .3-2.5 1-7.2 1.4-10.5 1.2-8.4 1.4-12.9 1.4-29.5 0-14-1.1-45.9-1.8-53-.2-1.9-.6-7.8-.9-13-.9-12.8-1.5-22.3-2.1-29.5-.3-3.3-.7-11.2-1.1-17.5-.3-6.3-.7-13.3-.9-15.5-.3-3.5-1.2-24.8-1.9-45.8l-.3-6.8 11.6-14.7c13.6-17.3 17.5-23.1 22.5-33.2 6.6-13.6 8.6-25.5 6.2-37.2-.9-4-6.9-11.8-9.1-11.8-2 0-3.5-3.2-3.5-7.5 0-7.4-5.3-15.5-11.5-17.5-3.1-1-8.6-1.1-11.6-.2zm.1 29.9c0 1-2.1 4-4.7 6.8l-4.6 5 2.8-5c2.6-4.7 5.4-8.5 6.2-8.5.1 0 .3.8.3 1.7zm11 33.9c-2.1 6-10.2 19.2-10.8 17.5-.6-1.9 1.9-9.1 4.1-11.8 1.3-1.5 3.6-5 5.1-7.6 1.5-2.7 3-4.7 3.2-4.4.2.2-.5 3-1.6 6.3zm-179.6 46.5c-.3.5-1.5.9-2.7.9-1.2 0-3.1.7-4.1 1.5-1.1.8-2.4 1.5-2.9 1.5-1.5 0 2.5-4.1 4.8-5 2.3-.9 5.7-.1 4.9 1.1zm125.8 25c.3 3.4-.1 4.8-2.5 7.7-10.7 13.5-45.9 38.8-65.2 46.9-10.2 4.3-27.5 8.2-27.5 6.2 0-3.5 3.3-6.7 9.7-9.4 22.3-9.5 48.2-26.2 76.3-49.3 4.1-3.4 7.8-6.2 8.1-6.2.4 0 .9 1.9 1.1 4.1zm-118.5 5.8c-.7 8.3-1.4 11.3-3.8 16.8-3.3 7.4-4.3 6.5-3.6-3.3.6-9.7 2.7-16.9 5.5-19 .9-.7 1.9-1.4 2-1.4.2 0 .2 3.1-.1 6.9zm13.5 27c-.3 3.1-.8 4.1-2.2 4.1-1.6 0-1.7-.3-.2-4.4 2-5.4 2.9-5.2 2.4.3zM475 287.8c0 .7-4.9 8.6-10.9 17.5-5.9 8.9-18.7 28.1-28.3 42.7-35.6 53.8-57.4 80.7-78.9 97.3-4.8 3.7-8.9 6.7-9.2 6.7-.3 0 2.7-3 6.5-6.8 3.9-3.7 12.2-13 18.6-20.7 6.3-7.7 14.3-16.9 17.7-20.5 3.4-3.6 11.6-14.4 18.1-24 22.7-33.5 38.4-56.6 51.6-76.2 12.2-18.2 14.7-20.9 14.8-16zm136.7 169.9c-.8 1.6-2.3 4.6-3.3 6.8s-2 4.2-2.4 4.5c-.3.3-1.7 2.3-3.1 4.5-4.1 6.4-14.4 16-20.7 19.3-6.5 3.4-16 6.2-23.8 6.7-2.9.3-5.6.5-6.1.6-2.6.5-11.3-.2-11.3-.9 0-.4 1.9-.9 4.3-1 6.3-.4 19.6-3.8 26.3-6.7 14-6.2 27.1-17.2 36.6-30.8 4.5-6.2 5.6-7.2 3.5-3z"/><path d="M266.7 190.2c-6 5.8-47.3 45.9-67.7 65.8-35.9 35.1-58.6 56.9-59.5 57.2-.9.3-1.7-2.9-2.9-12.7-.4-2.8-1.1-7.5-1.6-10.5s-1.2-8-1.5-11c-1.3-11-5.1-18.4-11.2-22-2.8-1.6-3.3-2.5-3.3-5.7-.1-5.7-4.7-14.3-9.6-17.6-3.2-2.3-5.2-2.9-9-2.9-4.2.1-8.2 1.8-29.4 12.5-13.5 6.8-27.9 13.6-32 15.2-11.3 4.2-13.1 6.5-14.5 18.2-.7 5.7-.8 5.6 5.5 5.4 17.9-.7 31.4-5.1 49.5-16.4 2.8-1.7 6.3-4.2 7.9-5.5 3.3-2.6 7.9-2.7 8.4 0 .3 1.3-3.8 3.8-17.6 10.7-9.8 4.9-21.6 10.4-26 12.1-11.1 4.3-12.5 6.1-13.7 19.3l-.4 4.8 6.7-.6c19.8-1.7 32-5.9 49.5-17.1 5.4-3.5 6.7-4 6.8-2.6 0 .9.2 2.6.5 3.7 1.2 6 1.9 17.9 1.9 33.1v17.2l-12.1 12.3c-12.6 12.8-20.7 21.5-26.5 28.4-1.9 2.2-3.9 4.6-4.6 5.2-2.3 2.5-18.4 27.2-22.3 34.4-6 10.8-8.8 17.1-12.8 28.9-3.2 9.5-3.6 11.6-3.6 21.5-.1 12.7 1.3 16.6 9 24.5 2.6 2.8 4.5 5.8 4.9 7.8.6 3.8 4.5 11.6 7.2 14.8 7.6 8.9 21.4 12.7 34.6 9.5 18.5-4.4 36.6-23.7 49.4-52.6 7.1-15.9 8.4-21.8 12.9-59.5.3-3 .7-6.4.9-7.5.1-1.1.6-4.7 1-8 .3-3.3.8-7.1 1-8.5.2-1.4.6-5 1-8 .7-6.2-1.5-3.7 27-30.5 8.7-8.3 19.2-18.2 23.3-22 4.1-3.9 9.1-8.6 11.2-10.5 2-1.9 9.5-9 16.6-15.6 7.1-6.7 14.9-14.1 17.4-16.4 2.5-2.3 7.2-6.7 10.5-9.8 3.3-3.2 7-6.5 8.2-7.6l2.2-1.8-.4 4.3c-.2 2.4-.9 9.8-1.5 16.4-.6 6.6-1.3 14.5-1.6 17.5-.3 3-.7 7.7-.9 10.5-.2 2.7-.6 7-.9 9.5-.3 2.5-.8 7.9-1.1 12-.4 4.1-.8 8.6-1 10-.2 1.4-.6 5.6-1 9.5-.9 10.8-1.6 17.8-2 20.5-1.2 8-1.9 31.7-1.8 62l.1 34.5 3.1 10.5c3.3 11.2 9.1 24.3 14 31.3 1.6 2.4 4.6 7.6 6.7 11.7 16.5 32.5 39.8 45.6 78.9 44.4 17.6-.5 27.6-2.5 35.3-7 3.5-2.1 17.8-17.2 17-18-.2-.1-2.3.1-4.8.6-2.5.4-6.3 1.1-8.5 1.4-2.2.3-5.1.8-6.5 1.1-11.4 2.1-20.1 3-30.8 2.8-8.5-.1-22.1-2.3-24.9-4.1-.6-.4 4.4-.8 11.2-.9 22.9-.4 34.2-4.7 44.3-16.7 3.4-4.1 6.2-7.7 6.2-8 0-.3-1-.3-2.2 0-30 5.9-49.2 7.1-64.3 4-9.2-1.8-22.1-7.8-28.1-13-8.3-7.1-9.8-16.1-9.8-59.6-.1-28.8.5-43.4 1.9-55 .2-1.9.7-6 1-9 1.2-11.2 2.6-22.7 3-24.9.1-.9.6-4.1 1-7.1.7-6 1-7.7 2.1-16 .4-3 .8-6.2.9-7 .1-.8.5-4 .9-7s.9-7.3 1.2-9.5c.3-2.2.7-5.1.9-6.5.2-1.4.6-5.4 1-9 .3-3.6.8-7.6 1-9 .5-2.9 1.5-15.3 2.4-30 .6-10.1.5-27.2-.3-33.5-.2-1.7-.4-5.1-.5-7.6-.1-4.4-.5-5.1-6.6-11.1-6.4-6.2-6.6-6.6-7.1-12.4-.5-5.7-.8-6.2-6.7-12.1-3.4-3.4-6.5-6.2-6.8-6.3-.3 0-3.6 2.8-7.2 6.2zm-6.6 43.5c-.5 1-5.1 5.8-10.3 10.7-5.1 4.9-22.1 21.4-37.8 36.6-15.7 15.3-31.6 30.8-35.5 34.5-3.8 3.7-12.7 12.3-19.6 19.1-7 6.8-12.9 12.4-13.3 12.4-.3 0-.6-1.1-.6-2.4 0-2.4 1.2-3.6 31.5-32.1 7.6-7.2 15.6-14.7 17.9-16.9 2.3-2.1 7.3-6.8 11.2-10.5 3.8-3.6 13.7-12.9 22-20.7 36.3-34.3 36.7-34.7 34.5-30.7zM103.8 377.9c-.1.5-4.7 5.5-10 11.2-5.3 5.7-10.8 11.6-12.1 13.1-4.4 4.8-12 15-19.4 26.2-4 6-7.3 10.5-7.3 10 0-.6 2.7-5.6 6.1-11.2 6.1-10.4 15.8-23.2 23.3-30.8 2.3-2.3 7.2-7.6 11-11.8 6.1-6.7 9.5-9.4 8.4-6.7zm-9.9 52.7c-4.9 17.7-11.6 30.7-21.3 41.2-2.2 2.4-5.2 5-6.7 5.8l-2.8 1.4 1.5-5.3c3.6-11.9 15.2-32 25.7-44.1 2.7-3.1 5-5.6 5.1-5.6.2 0-.5 3-1.5 6.6zm3.5 50.1c-8.8 15.2-17.8 23.3-27.7 25.2-2.5.4-5.1.5-5.8 0-1.7-1-1.5-1.1 4.6-3.4 2.8-1 6.8-3 9-4.3C82.6 495 93 485 96.6 479.9c3.7-5.4 4.2-4.9.8.8z"/></svg>